<mxfile host="app.diagrams.net" agent="Mozilla/5.0 (Windows NT 10.0; Win64; x64) AppleWebKit/537.36 (KHTML, like Gecko) Chrome/141.0.0.0 Safari/537.36" version="28.2.7">
  <diagram name="Страница — 1" id="HOSntctd37AdvG3vy1FT">
    <mxGraphModel dx="2037" dy="1073" grid="1" gridSize="10" guides="1" tooltips="1" connect="1" arrows="1" fold="1" page="1" pageScale="1" pageWidth="827" pageHeight="1169" math="0" shadow="0">
      <root>
        <mxCell id="0" />
        <mxCell id="1" parent="0" />
        <mxCell id="6hYHMVU2Tr5-_BcsYfaz-1" value="Suppliers" style="swimlane;fontStyle=0;childLayout=stackLayout;horizontal=1;startSize=30;horizontalStack=0;resizeParent=1;resizeParentMax=0;resizeLast=0;collapsible=1;marginBottom=0;whiteSpace=wrap;html=1;" vertex="1" parent="1">
          <mxGeometry x="50" y="60" width="140" height="172" as="geometry">
            <mxRectangle x="160" y="150" width="80" height="30" as="alternateBounds" />
          </mxGeometry>
        </mxCell>
        <mxCell id="6hYHMVU2Tr5-_BcsYfaz-2" value="ID" style="text;strokeColor=none;fillColor=none;align=left;verticalAlign=middle;spacingLeft=4;spacingRight=4;overflow=hidden;points=[[0,0.5],[1,0.5]];portConstraint=eastwest;rotatable=0;whiteSpace=wrap;html=1;" vertex="1" parent="6hYHMVU2Tr5-_BcsYfaz-1">
          <mxGeometry y="30" width="140" height="30" as="geometry" />
        </mxCell>
        <mxCell id="6hYHMVU2Tr5-_BcsYfaz-3" value="NAME" style="text;strokeColor=none;fillColor=none;align=left;verticalAlign=middle;spacingLeft=4;spacingRight=4;overflow=hidden;points=[[0,0.5],[1,0.5]];portConstraint=eastwest;rotatable=0;whiteSpace=wrap;html=1;" vertex="1" parent="6hYHMVU2Tr5-_BcsYfaz-1">
          <mxGeometry y="60" width="140" height="30" as="geometry" />
        </mxCell>
        <mxCell id="6hYHMVU2Tr5-_BcsYfaz-4" value="ADDRESS" style="text;strokeColor=none;fillColor=none;align=left;verticalAlign=middle;spacingLeft=4;spacingRight=4;overflow=hidden;points=[[0,0.5],[1,0.5]];portConstraint=eastwest;rotatable=0;whiteSpace=wrap;html=1;" vertex="1" parent="6hYHMVU2Tr5-_BcsYfaz-1">
          <mxGeometry y="90" width="140" height="30" as="geometry" />
        </mxCell>
        <mxCell id="6hYHMVU2Tr5-_BcsYfaz-8" value="CONTACT" style="text;strokeColor=none;fillColor=none;align=left;verticalAlign=top;spacingLeft=4;spacingRight=4;overflow=hidden;rotatable=0;points=[[0,0.5],[1,0.5]];portConstraint=eastwest;whiteSpace=wrap;html=1;" vertex="1" parent="6hYHMVU2Tr5-_BcsYfaz-1">
          <mxGeometry y="120" width="140" height="26" as="geometry" />
        </mxCell>
        <mxCell id="6hYHMVU2Tr5-_BcsYfaz-9" value="CONTACT_PERSON" style="text;strokeColor=none;fillColor=none;align=left;verticalAlign=top;spacingLeft=4;spacingRight=4;overflow=hidden;rotatable=0;points=[[0,0.5],[1,0.5]];portConstraint=eastwest;whiteSpace=wrap;html=1;" vertex="1" parent="6hYHMVU2Tr5-_BcsYfaz-1">
          <mxGeometry y="146" width="140" height="26" as="geometry" />
        </mxCell>
        <mxCell id="6hYHMVU2Tr5-_BcsYfaz-10" value="Shops" style="swimlane;fontStyle=0;childLayout=stackLayout;horizontal=1;startSize=30;horizontalStack=0;resizeParent=1;resizeParentMax=0;resizeLast=0;collapsible=1;marginBottom=0;whiteSpace=wrap;html=1;" vertex="1" parent="1">
          <mxGeometry x="840" y="130" width="140" height="146" as="geometry" />
        </mxCell>
        <mxCell id="6hYHMVU2Tr5-_BcsYfaz-11" value="ID" style="text;strokeColor=none;fillColor=none;align=left;verticalAlign=middle;spacingLeft=4;spacingRight=4;overflow=hidden;points=[[0,0.5],[1,0.5]];portConstraint=eastwest;rotatable=0;whiteSpace=wrap;html=1;" vertex="1" parent="6hYHMVU2Tr5-_BcsYfaz-10">
          <mxGeometry y="30" width="140" height="30" as="geometry" />
        </mxCell>
        <mxCell id="6hYHMVU2Tr5-_BcsYfaz-12" value="NAME" style="text;strokeColor=none;fillColor=none;align=left;verticalAlign=middle;spacingLeft=4;spacingRight=4;overflow=hidden;points=[[0,0.5],[1,0.5]];portConstraint=eastwest;rotatable=0;whiteSpace=wrap;html=1;" vertex="1" parent="6hYHMVU2Tr5-_BcsYfaz-10">
          <mxGeometry y="60" width="140" height="30" as="geometry" />
        </mxCell>
        <mxCell id="6hYHMVU2Tr5-_BcsYfaz-13" value="ADDRESS" style="text;strokeColor=none;fillColor=none;align=left;verticalAlign=middle;spacingLeft=4;spacingRight=4;overflow=hidden;points=[[0,0.5],[1,0.5]];portConstraint=eastwest;rotatable=0;whiteSpace=wrap;html=1;" vertex="1" parent="6hYHMVU2Tr5-_BcsYfaz-10">
          <mxGeometry y="90" width="140" height="30" as="geometry" />
        </mxCell>
        <mxCell id="6hYHMVU2Tr5-_BcsYfaz-14" value="PHONE_NUMBER" style="text;strokeColor=none;fillColor=none;align=left;verticalAlign=top;spacingLeft=4;spacingRight=4;overflow=hidden;rotatable=0;points=[[0,0.5],[1,0.5]];portConstraint=eastwest;whiteSpace=wrap;html=1;" vertex="1" parent="6hYHMVU2Tr5-_BcsYfaz-10">
          <mxGeometry y="120" width="140" height="26" as="geometry" />
        </mxCell>
        <mxCell id="6hYHMVU2Tr5-_BcsYfaz-15" value="Items" style="swimlane;fontStyle=0;childLayout=stackLayout;horizontal=1;startSize=30;horizontalStack=0;resizeParent=1;resizeParentMax=0;resizeLast=0;collapsible=1;marginBottom=0;whiteSpace=wrap;html=1;" vertex="1" parent="1">
          <mxGeometry x="620" y="439" width="140" height="146" as="geometry" />
        </mxCell>
        <mxCell id="6hYHMVU2Tr5-_BcsYfaz-16" value="ID" style="text;strokeColor=none;fillColor=none;align=left;verticalAlign=middle;spacingLeft=4;spacingRight=4;overflow=hidden;points=[[0,0.5],[1,0.5]];portConstraint=eastwest;rotatable=0;whiteSpace=wrap;html=1;" vertex="1" parent="6hYHMVU2Tr5-_BcsYfaz-15">
          <mxGeometry y="30" width="140" height="30" as="geometry" />
        </mxCell>
        <mxCell id="6hYHMVU2Tr5-_BcsYfaz-17" value="ID_TYPE" style="text;strokeColor=none;fillColor=none;align=left;verticalAlign=middle;spacingLeft=4;spacingRight=4;overflow=hidden;points=[[0,0.5],[1,0.5]];portConstraint=eastwest;rotatable=0;whiteSpace=wrap;html=1;" vertex="1" parent="6hYHMVU2Tr5-_BcsYfaz-15">
          <mxGeometry y="60" width="140" height="30" as="geometry" />
        </mxCell>
        <mxCell id="6hYHMVU2Tr5-_BcsYfaz-18" value="NAME" style="text;strokeColor=none;fillColor=none;align=left;verticalAlign=middle;spacingLeft=4;spacingRight=4;overflow=hidden;points=[[0,0.5],[1,0.5]];portConstraint=eastwest;rotatable=0;whiteSpace=wrap;html=1;" vertex="1" parent="6hYHMVU2Tr5-_BcsYfaz-15">
          <mxGeometry y="90" width="140" height="30" as="geometry" />
        </mxCell>
        <mxCell id="6hYHMVU2Tr5-_BcsYfaz-19" value="PRICE_RETAIL" style="text;strokeColor=none;fillColor=none;align=left;verticalAlign=top;spacingLeft=4;spacingRight=4;overflow=hidden;rotatable=0;points=[[0,0.5],[1,0.5]];portConstraint=eastwest;whiteSpace=wrap;html=1;" vertex="1" parent="6hYHMVU2Tr5-_BcsYfaz-15">
          <mxGeometry y="120" width="140" height="26" as="geometry" />
        </mxCell>
        <mxCell id="6hYHMVU2Tr5-_BcsYfaz-39" value="ORDERS" style="swimlane;fontStyle=0;childLayout=stackLayout;horizontal=1;startSize=30;horizontalStack=0;resizeParent=1;resizeParentMax=0;resizeLast=0;collapsible=1;marginBottom=0;whiteSpace=wrap;html=1;" vertex="1" parent="1">
          <mxGeometry x="344" y="690" width="140" height="180" as="geometry" />
        </mxCell>
        <mxCell id="6hYHMVU2Tr5-_BcsYfaz-40" value="ID" style="text;strokeColor=none;fillColor=none;align=left;verticalAlign=middle;spacingLeft=4;spacingRight=4;overflow=hidden;points=[[0,0.5],[1,0.5]];portConstraint=eastwest;rotatable=0;whiteSpace=wrap;html=1;" vertex="1" parent="6hYHMVU2Tr5-_BcsYfaz-39">
          <mxGeometry y="30" width="140" height="30" as="geometry" />
        </mxCell>
        <mxCell id="6hYHMVU2Tr5-_BcsYfaz-42" value="CREATED_AT" style="text;strokeColor=none;fillColor=none;align=left;verticalAlign=middle;spacingLeft=4;spacingRight=4;overflow=hidden;points=[[0,0.5],[1,0.5]];portConstraint=eastwest;rotatable=0;whiteSpace=wrap;html=1;" vertex="1" parent="6hYHMVU2Tr5-_BcsYfaz-39">
          <mxGeometry y="60" width="140" height="30" as="geometry" />
        </mxCell>
        <mxCell id="6hYHMVU2Tr5-_BcsYfaz-51" value="ID_CLIENT" style="text;strokeColor=none;fillColor=none;align=left;verticalAlign=middle;spacingLeft=4;spacingRight=4;overflow=hidden;points=[[0,0.5],[1,0.5]];portConstraint=eastwest;rotatable=0;whiteSpace=wrap;html=1;" vertex="1" parent="6hYHMVU2Tr5-_BcsYfaz-39">
          <mxGeometry y="90" width="140" height="30" as="geometry" />
        </mxCell>
        <mxCell id="6hYHMVU2Tr5-_BcsYfaz-120" value="STATUS" style="text;strokeColor=none;fillColor=none;align=left;verticalAlign=middle;spacingLeft=4;spacingRight=4;overflow=hidden;points=[[0,0.5],[1,0.5]];portConstraint=eastwest;rotatable=0;whiteSpace=wrap;html=1;" vertex="1" parent="6hYHMVU2Tr5-_BcsYfaz-39">
          <mxGeometry y="120" width="140" height="30" as="geometry" />
        </mxCell>
        <mxCell id="6hYHMVU2Tr5-_BcsYfaz-121" value="ORDER_DATE" style="text;strokeColor=none;fillColor=none;align=left;verticalAlign=middle;spacingLeft=4;spacingRight=4;overflow=hidden;points=[[0,0.5],[1,0.5]];portConstraint=eastwest;rotatable=0;whiteSpace=wrap;html=1;" vertex="1" parent="6hYHMVU2Tr5-_BcsYfaz-39">
          <mxGeometry y="150" width="140" height="30" as="geometry" />
        </mxCell>
        <mxCell id="6hYHMVU2Tr5-_BcsYfaz-43" value="CLIENTS" style="swimlane;fontStyle=0;childLayout=stackLayout;horizontal=1;startSize=30;horizontalStack=0;resizeParent=1;resizeParentMax=0;resizeLast=0;collapsible=1;marginBottom=0;whiteSpace=wrap;html=1;" vertex="1" parent="1">
          <mxGeometry x="40" y="600" width="140" height="180" as="geometry" />
        </mxCell>
        <mxCell id="6hYHMVU2Tr5-_BcsYfaz-44" value="ID" style="text;strokeColor=none;fillColor=none;align=left;verticalAlign=middle;spacingLeft=4;spacingRight=4;overflow=hidden;points=[[0,0.5],[1,0.5]];portConstraint=eastwest;rotatable=0;whiteSpace=wrap;html=1;" vertex="1" parent="6hYHMVU2Tr5-_BcsYfaz-43">
          <mxGeometry y="30" width="140" height="30" as="geometry" />
        </mxCell>
        <mxCell id="6hYHMVU2Tr5-_BcsYfaz-117" value="NAME" style="text;strokeColor=none;fillColor=none;align=left;verticalAlign=middle;spacingLeft=4;spacingRight=4;overflow=hidden;points=[[0,0.5],[1,0.5]];portConstraint=eastwest;rotatable=0;whiteSpace=wrap;html=1;" vertex="1" parent="6hYHMVU2Tr5-_BcsYfaz-43">
          <mxGeometry y="60" width="140" height="30" as="geometry" />
        </mxCell>
        <mxCell id="6hYHMVU2Tr5-_BcsYfaz-118" value="EMAIL" style="text;strokeColor=none;fillColor=none;align=left;verticalAlign=middle;spacingLeft=4;spacingRight=4;overflow=hidden;points=[[0,0.5],[1,0.5]];portConstraint=eastwest;rotatable=0;whiteSpace=wrap;html=1;" vertex="1" parent="6hYHMVU2Tr5-_BcsYfaz-43">
          <mxGeometry y="90" width="140" height="30" as="geometry" />
        </mxCell>
        <mxCell id="6hYHMVU2Tr5-_BcsYfaz-119" value="PHONE" style="text;strokeColor=none;fillColor=none;align=left;verticalAlign=middle;spacingLeft=4;spacingRight=4;overflow=hidden;points=[[0,0.5],[1,0.5]];portConstraint=eastwest;rotatable=0;whiteSpace=wrap;html=1;" vertex="1" parent="6hYHMVU2Tr5-_BcsYfaz-43">
          <mxGeometry y="120" width="140" height="30" as="geometry" />
        </mxCell>
        <mxCell id="6hYHMVU2Tr5-_BcsYfaz-45" value="CREATED_AT" style="text;strokeColor=none;fillColor=none;align=left;verticalAlign=middle;spacingLeft=4;spacingRight=4;overflow=hidden;points=[[0,0.5],[1,0.5]];portConstraint=eastwest;rotatable=0;whiteSpace=wrap;html=1;" vertex="1" parent="6hYHMVU2Tr5-_BcsYfaz-43">
          <mxGeometry y="150" width="140" height="30" as="geometry" />
        </mxCell>
        <mxCell id="6hYHMVU2Tr5-_BcsYfaz-47" value="ORDER_ITEMS" style="swimlane;fontStyle=0;childLayout=stackLayout;horizontal=1;startSize=30;horizontalStack=0;resizeParent=1;resizeParentMax=0;resizeLast=0;collapsible=1;marginBottom=0;whiteSpace=wrap;html=1;" vertex="1" parent="1">
          <mxGeometry x="391" y="500" width="140" height="180" as="geometry" />
        </mxCell>
        <mxCell id="6hYHMVU2Tr5-_BcsYfaz-48" value="ID_ITEM" style="text;strokeColor=none;fillColor=none;align=left;verticalAlign=middle;spacingLeft=4;spacingRight=4;overflow=hidden;points=[[0,0.5],[1,0.5]];portConstraint=eastwest;rotatable=0;whiteSpace=wrap;html=1;" vertex="1" parent="6hYHMVU2Tr5-_BcsYfaz-47">
          <mxGeometry y="30" width="140" height="30" as="geometry" />
        </mxCell>
        <mxCell id="6hYHMVU2Tr5-_BcsYfaz-49" value="ID_ORDER" style="text;strokeColor=none;fillColor=none;align=left;verticalAlign=middle;spacingLeft=4;spacingRight=4;overflow=hidden;points=[[0,0.5],[1,0.5]];portConstraint=eastwest;rotatable=0;whiteSpace=wrap;html=1;" vertex="1" parent="6hYHMVU2Tr5-_BcsYfaz-47">
          <mxGeometry y="60" width="140" height="30" as="geometry" />
        </mxCell>
        <mxCell id="6hYHMVU2Tr5-_BcsYfaz-123" value="QUANTITY" style="text;strokeColor=none;fillColor=none;align=left;verticalAlign=middle;spacingLeft=4;spacingRight=4;overflow=hidden;points=[[0,0.5],[1,0.5]];portConstraint=eastwest;rotatable=0;whiteSpace=wrap;html=1;" vertex="1" parent="6hYHMVU2Tr5-_BcsYfaz-47">
          <mxGeometry y="90" width="140" height="30" as="geometry" />
        </mxCell>
        <mxCell id="6hYHMVU2Tr5-_BcsYfaz-132" value="UNIT_PRICE" style="text;strokeColor=none;fillColor=none;align=left;verticalAlign=middle;spacingLeft=4;spacingRight=4;overflow=hidden;points=[[0,0.5],[1,0.5]];portConstraint=eastwest;rotatable=0;whiteSpace=wrap;html=1;" vertex="1" parent="6hYHMVU2Tr5-_BcsYfaz-47">
          <mxGeometry y="120" width="140" height="30" as="geometry" />
        </mxCell>
        <mxCell id="6hYHMVU2Tr5-_BcsYfaz-50" value="DISCOUNT" style="text;strokeColor=none;fillColor=none;align=left;verticalAlign=middle;spacingLeft=4;spacingRight=4;overflow=hidden;points=[[0,0.5],[1,0.5]];portConstraint=eastwest;rotatable=0;whiteSpace=wrap;html=1;" vertex="1" parent="6hYHMVU2Tr5-_BcsYfaz-47">
          <mxGeometry y="150" width="140" height="30" as="geometry" />
        </mxCell>
        <mxCell id="6hYHMVU2Tr5-_BcsYfaz-52" style="edgeStyle=orthogonalEdgeStyle;rounded=0;orthogonalLoop=1;jettySize=auto;html=1;curved=1;endArrow=ERmany;endFill=0;exitX=0;exitY=0.5;exitDx=0;exitDy=0;entryX=1;entryY=0.5;entryDx=0;entryDy=0;" edge="1" parent="1" source="6hYHMVU2Tr5-_BcsYfaz-16" target="6hYHMVU2Tr5-_BcsYfaz-48">
          <mxGeometry relative="1" as="geometry">
            <mxPoint x="560" y="690" as="sourcePoint" />
            <mxPoint x="620" y="670" as="targetPoint" />
          </mxGeometry>
        </mxCell>
        <mxCell id="6hYHMVU2Tr5-_BcsYfaz-54" style="edgeStyle=orthogonalEdgeStyle;rounded=0;orthogonalLoop=1;jettySize=auto;html=1;curved=1;endArrow=ERmany;endFill=0;exitX=1;exitY=0.5;exitDx=0;exitDy=0;entryX=1;entryY=0.5;entryDx=0;entryDy=0;" edge="1" parent="1" source="6hYHMVU2Tr5-_BcsYfaz-40" target="6hYHMVU2Tr5-_BcsYfaz-49">
          <mxGeometry relative="1" as="geometry">
            <mxPoint x="626" y="570" as="sourcePoint" />
            <mxPoint x="560" y="656" as="targetPoint" />
            <Array as="points">
              <mxPoint x="640" y="735" />
              <mxPoint x="640" y="600" />
              <mxPoint x="541" y="600" />
            </Array>
          </mxGeometry>
        </mxCell>
        <mxCell id="6hYHMVU2Tr5-_BcsYfaz-55" style="edgeStyle=orthogonalEdgeStyle;rounded=0;orthogonalLoop=1;jettySize=auto;html=1;curved=1;endArrow=ERmany;endFill=0;exitX=1;exitY=0.5;exitDx=0;exitDy=0;entryX=0;entryY=0.5;entryDx=0;entryDy=0;" edge="1" parent="1" source="6hYHMVU2Tr5-_BcsYfaz-44" target="6hYHMVU2Tr5-_BcsYfaz-51">
          <mxGeometry relative="1" as="geometry">
            <mxPoint x="205" y="825" as="sourcePoint" />
            <mxPoint x="297" y="795" as="targetPoint" />
          </mxGeometry>
        </mxCell>
        <mxCell id="6hYHMVU2Tr5-_BcsYfaz-56" value="Item_Batches" style="swimlane;fontStyle=0;childLayout=stackLayout;horizontal=1;startSize=30;horizontalStack=0;resizeParent=1;resizeParentMax=0;resizeLast=0;collapsible=1;marginBottom=0;whiteSpace=wrap;html=1;" vertex="1" parent="1">
          <mxGeometry x="620" y="91" width="140" height="224" as="geometry" />
        </mxCell>
        <mxCell id="6hYHMVU2Tr5-_BcsYfaz-57" value="ID" style="text;strokeColor=none;fillColor=none;align=left;verticalAlign=middle;spacingLeft=4;spacingRight=4;overflow=hidden;points=[[0,0.5],[1,0.5]];portConstraint=eastwest;rotatable=0;whiteSpace=wrap;html=1;" vertex="1" parent="6hYHMVU2Tr5-_BcsYfaz-56">
          <mxGeometry y="30" width="140" height="30" as="geometry" />
        </mxCell>
        <mxCell id="6hYHMVU2Tr5-_BcsYfaz-58" value="ID_SUPPLY" style="text;strokeColor=none;fillColor=none;align=left;verticalAlign=middle;spacingLeft=4;spacingRight=4;overflow=hidden;points=[[0,0.5],[1,0.5]];portConstraint=eastwest;rotatable=0;whiteSpace=wrap;html=1;" vertex="1" parent="6hYHMVU2Tr5-_BcsYfaz-56">
          <mxGeometry y="60" width="140" height="30" as="geometry" />
        </mxCell>
        <mxCell id="6hYHMVU2Tr5-_BcsYfaz-59" value="iD_ITEM" style="text;strokeColor=none;fillColor=none;align=left;verticalAlign=middle;spacingLeft=4;spacingRight=4;overflow=hidden;points=[[0,0.5],[1,0.5]];portConstraint=eastwest;rotatable=0;whiteSpace=wrap;html=1;" vertex="1" parent="6hYHMVU2Tr5-_BcsYfaz-56">
          <mxGeometry y="90" width="140" height="30" as="geometry" />
        </mxCell>
        <mxCell id="6hYHMVU2Tr5-_BcsYfaz-65" value="ID_SHOP" style="text;strokeColor=none;fillColor=none;align=left;verticalAlign=top;spacingLeft=4;spacingRight=4;overflow=hidden;rotatable=0;points=[[0,0.5],[1,0.5]];portConstraint=eastwest;whiteSpace=wrap;html=1;" vertex="1" parent="6hYHMVU2Tr5-_BcsYfaz-56">
          <mxGeometry y="120" width="140" height="26" as="geometry" />
        </mxCell>
        <mxCell id="6hYHMVU2Tr5-_BcsYfaz-66" value="QUANTITY" style="text;strokeColor=none;fillColor=none;align=left;verticalAlign=top;spacingLeft=4;spacingRight=4;overflow=hidden;rotatable=0;points=[[0,0.5],[1,0.5]];portConstraint=eastwest;whiteSpace=wrap;html=1;" vertex="1" parent="6hYHMVU2Tr5-_BcsYfaz-56">
          <mxGeometry y="146" width="140" height="26" as="geometry" />
        </mxCell>
        <mxCell id="6hYHMVU2Tr5-_BcsYfaz-67" value="REMAINING_QUANTITY" style="text;strokeColor=none;fillColor=none;align=left;verticalAlign=top;spacingLeft=4;spacingRight=4;overflow=hidden;rotatable=0;points=[[0,0.5],[1,0.5]];portConstraint=eastwest;whiteSpace=wrap;html=1;" vertex="1" parent="6hYHMVU2Tr5-_BcsYfaz-56">
          <mxGeometry y="172" width="140" height="26" as="geometry" />
        </mxCell>
        <mxCell id="6hYHMVU2Tr5-_BcsYfaz-68" value="SUPPLY_PRICE" style="text;strokeColor=none;fillColor=none;align=left;verticalAlign=top;spacingLeft=4;spacingRight=4;overflow=hidden;rotatable=0;points=[[0,0.5],[1,0.5]];portConstraint=eastwest;whiteSpace=wrap;html=1;" vertex="1" parent="6hYHMVU2Tr5-_BcsYfaz-56">
          <mxGeometry y="198" width="140" height="26" as="geometry" />
        </mxCell>
        <mxCell id="6hYHMVU2Tr5-_BcsYfaz-71" value="Supplies" style="swimlane;fontStyle=0;childLayout=stackLayout;horizontal=1;startSize=30;horizontalStack=0;resizeParent=1;resizeParentMax=0;resizeLast=0;collapsible=1;marginBottom=0;whiteSpace=wrap;html=1;" vertex="1" parent="1">
          <mxGeometry x="228" y="30" width="140" height="220" as="geometry">
            <mxRectangle x="160" y="150" width="80" height="30" as="alternateBounds" />
          </mxGeometry>
        </mxCell>
        <mxCell id="6hYHMVU2Tr5-_BcsYfaz-72" value="ID" style="text;strokeColor=none;fillColor=none;align=left;verticalAlign=middle;spacingLeft=4;spacingRight=4;overflow=hidden;points=[[0,0.5],[1,0.5]];portConstraint=eastwest;rotatable=0;whiteSpace=wrap;html=1;" vertex="1" parent="6hYHMVU2Tr5-_BcsYfaz-71">
          <mxGeometry y="30" width="140" height="30" as="geometry" />
        </mxCell>
        <mxCell id="6hYHMVU2Tr5-_BcsYfaz-73" value="id_supplier" style="text;strokeColor=none;fillColor=none;align=left;verticalAlign=middle;spacingLeft=4;spacingRight=4;overflow=hidden;points=[[0,0.5],[1,0.5]];portConstraint=eastwest;rotatable=0;whiteSpace=wrap;html=1;" vertex="1" parent="6hYHMVU2Tr5-_BcsYfaz-71">
          <mxGeometry y="60" width="140" height="30" as="geometry" />
        </mxCell>
        <mxCell id="6hYHMVU2Tr5-_BcsYfaz-74" value="SUPPLY_DATE" style="text;strokeColor=none;fillColor=none;align=left;verticalAlign=middle;spacingLeft=4;spacingRight=4;overflow=hidden;points=[[0,0.5],[1,0.5]];portConstraint=eastwest;rotatable=0;whiteSpace=wrap;html=1;" vertex="1" parent="6hYHMVU2Tr5-_BcsYfaz-71">
          <mxGeometry y="90" width="140" height="30" as="geometry" />
        </mxCell>
        <mxCell id="6hYHMVU2Tr5-_BcsYfaz-75" value="TOTAL_AMOUNT" style="text;strokeColor=none;fillColor=none;align=left;verticalAlign=top;spacingLeft=4;spacingRight=4;overflow=hidden;rotatable=0;points=[[0,0.5],[1,0.5]];portConstraint=eastwest;whiteSpace=wrap;html=1;" vertex="1" parent="6hYHMVU2Tr5-_BcsYfaz-71">
          <mxGeometry y="120" width="140" height="26" as="geometry" />
        </mxCell>
        <mxCell id="6hYHMVU2Tr5-_BcsYfaz-76" value="STATUS(заказан, доставлен, отменен)" style="text;strokeColor=none;fillColor=none;align=left;verticalAlign=top;spacingLeft=4;spacingRight=4;overflow=hidden;rotatable=0;points=[[0,0.5],[1,0.5]];portConstraint=eastwest;whiteSpace=wrap;html=1;" vertex="1" parent="6hYHMVU2Tr5-_BcsYfaz-71">
          <mxGeometry y="146" width="140" height="44" as="geometry" />
        </mxCell>
        <mxCell id="6hYHMVU2Tr5-_BcsYfaz-77" value="CREATED_AT" style="text;strokeColor=none;fillColor=none;align=left;verticalAlign=top;spacingLeft=4;spacingRight=4;overflow=hidden;rotatable=0;points=[[0,0.5],[1,0.5]];portConstraint=eastwest;whiteSpace=wrap;html=1;" vertex="1" parent="6hYHMVU2Tr5-_BcsYfaz-71">
          <mxGeometry y="190" width="140" height="30" as="geometry" />
        </mxCell>
        <mxCell id="6hYHMVU2Tr5-_BcsYfaz-78" value="SUPPLY_ITEMS" style="swimlane;fontStyle=0;childLayout=stackLayout;horizontal=1;startSize=30;horizontalStack=0;resizeParent=1;resizeParentMax=0;resizeLast=0;collapsible=1;marginBottom=0;whiteSpace=wrap;html=1;" vertex="1" parent="1">
          <mxGeometry x="388" y="286" width="166" height="198" as="geometry" />
        </mxCell>
        <mxCell id="6hYHMVU2Tr5-_BcsYfaz-79" value="ID" style="text;strokeColor=none;fillColor=none;align=left;verticalAlign=middle;spacingLeft=4;spacingRight=4;overflow=hidden;points=[[0,0.5],[1,0.5]];portConstraint=eastwest;rotatable=0;whiteSpace=wrap;html=1;" vertex="1" parent="6hYHMVU2Tr5-_BcsYfaz-78">
          <mxGeometry y="30" width="166" height="30" as="geometry" />
        </mxCell>
        <mxCell id="6hYHMVU2Tr5-_BcsYfaz-80" value="ID_SUPPLY" style="text;strokeColor=none;fillColor=none;align=left;verticalAlign=middle;spacingLeft=4;spacingRight=4;overflow=hidden;points=[[0,0.5],[1,0.5]];portConstraint=eastwest;rotatable=0;whiteSpace=wrap;html=1;" vertex="1" parent="6hYHMVU2Tr5-_BcsYfaz-78">
          <mxGeometry y="60" width="166" height="30" as="geometry" />
        </mxCell>
        <mxCell id="6hYHMVU2Tr5-_BcsYfaz-81" value="iD_ITEM" style="text;strokeColor=none;fillColor=none;align=left;verticalAlign=middle;spacingLeft=4;spacingRight=4;overflow=hidden;points=[[0,0.5],[1,0.5]];portConstraint=eastwest;rotatable=0;whiteSpace=wrap;html=1;" vertex="1" parent="6hYHMVU2Tr5-_BcsYfaz-78">
          <mxGeometry y="90" width="166" height="30" as="geometry" />
        </mxCell>
        <mxCell id="6hYHMVU2Tr5-_BcsYfaz-83" value="QUANTITY" style="text;strokeColor=none;fillColor=none;align=left;verticalAlign=top;spacingLeft=4;spacingRight=4;overflow=hidden;rotatable=0;points=[[0,0.5],[1,0.5]];portConstraint=eastwest;whiteSpace=wrap;html=1;" vertex="1" parent="6hYHMVU2Tr5-_BcsYfaz-78">
          <mxGeometry y="120" width="166" height="26" as="geometry" />
        </mxCell>
        <mxCell id="6hYHMVU2Tr5-_BcsYfaz-85" value="SUPPLY_PRICE" style="text;strokeColor=none;fillColor=none;align=left;verticalAlign=top;spacingLeft=4;spacingRight=4;overflow=hidden;rotatable=0;points=[[0,0.5],[1,0.5]];portConstraint=eastwest;whiteSpace=wrap;html=1;" vertex="1" parent="6hYHMVU2Tr5-_BcsYfaz-78">
          <mxGeometry y="146" width="166" height="26" as="geometry" />
        </mxCell>
        <mxCell id="6hYHMVU2Tr5-_BcsYfaz-86" value="DELIVERY_TIME_DAYS" style="text;strokeColor=none;fillColor=none;align=left;verticalAlign=top;spacingLeft=4;spacingRight=4;overflow=hidden;rotatable=0;points=[[0,0.5],[1,0.5]];portConstraint=eastwest;whiteSpace=wrap;html=1;" vertex="1" parent="6hYHMVU2Tr5-_BcsYfaz-78">
          <mxGeometry y="172" width="166" height="26" as="geometry" />
        </mxCell>
        <mxCell id="6hYHMVU2Tr5-_BcsYfaz-87" value="BATCH_MOVEMENTS" style="swimlane;fontStyle=0;childLayout=stackLayout;horizontal=1;startSize=30;horizontalStack=0;resizeParent=1;resizeParentMax=0;resizeLast=0;collapsible=1;marginBottom=0;whiteSpace=wrap;html=1;" vertex="1" parent="1">
          <mxGeometry x="190" y="286" width="140" height="250" as="geometry" />
        </mxCell>
        <mxCell id="6hYHMVU2Tr5-_BcsYfaz-88" value="ID" style="text;strokeColor=none;fillColor=none;align=left;verticalAlign=middle;spacingLeft=4;spacingRight=4;overflow=hidden;points=[[0,0.5],[1,0.5]];portConstraint=eastwest;rotatable=0;whiteSpace=wrap;html=1;" vertex="1" parent="6hYHMVU2Tr5-_BcsYfaz-87">
          <mxGeometry y="30" width="140" height="30" as="geometry" />
        </mxCell>
        <mxCell id="6hYHMVU2Tr5-_BcsYfaz-89" value="ID_BATCH" style="text;strokeColor=none;fillColor=none;align=left;verticalAlign=middle;spacingLeft=4;spacingRight=4;overflow=hidden;points=[[0,0.5],[1,0.5]];portConstraint=eastwest;rotatable=0;whiteSpace=wrap;html=1;" vertex="1" parent="6hYHMVU2Tr5-_BcsYfaz-87">
          <mxGeometry y="60" width="140" height="30" as="geometry" />
        </mxCell>
        <mxCell id="6hYHMVU2Tr5-_BcsYfaz-90" value="ID_ORDER" style="text;strokeColor=none;fillColor=none;align=left;verticalAlign=middle;spacingLeft=4;spacingRight=4;overflow=hidden;points=[[0,0.5],[1,0.5]];portConstraint=eastwest;rotatable=0;whiteSpace=wrap;html=1;" vertex="1" parent="6hYHMVU2Tr5-_BcsYfaz-87">
          <mxGeometry y="90" width="140" height="30" as="geometry" />
        </mxCell>
        <mxCell id="6hYHMVU2Tr5-_BcsYfaz-94" value="MOVEMENT_TYPE" style="text;strokeColor=none;fillColor=none;align=left;verticalAlign=top;spacingLeft=4;spacingRight=4;overflow=hidden;rotatable=0;points=[[0,0.5],[1,0.5]];portConstraint=eastwest;whiteSpace=wrap;html=1;" vertex="1" parent="6hYHMVU2Tr5-_BcsYfaz-87">
          <mxGeometry y="120" width="140" height="26" as="geometry" />
        </mxCell>
        <mxCell id="6hYHMVU2Tr5-_BcsYfaz-93" value="ID_SUPPLY" style="text;strokeColor=none;fillColor=none;align=left;verticalAlign=top;spacingLeft=4;spacingRight=4;overflow=hidden;rotatable=0;points=[[0,0.5],[1,0.5]];portConstraint=eastwest;whiteSpace=wrap;html=1;" vertex="1" parent="6hYHMVU2Tr5-_BcsYfaz-87">
          <mxGeometry y="146" width="140" height="26" as="geometry" />
        </mxCell>
        <mxCell id="6hYHMVU2Tr5-_BcsYfaz-96" value="QUANTITY" style="text;strokeColor=none;fillColor=none;align=left;verticalAlign=top;spacingLeft=4;spacingRight=4;overflow=hidden;rotatable=0;points=[[0,0.5],[1,0.5]];portConstraint=eastwest;whiteSpace=wrap;html=1;" vertex="1" parent="6hYHMVU2Tr5-_BcsYfaz-87">
          <mxGeometry y="172" width="140" height="26" as="geometry" />
        </mxCell>
        <mxCell id="6hYHMVU2Tr5-_BcsYfaz-97" value="movement_date" style="text;strokeColor=none;fillColor=none;align=left;verticalAlign=top;spacingLeft=4;spacingRight=4;overflow=hidden;rotatable=0;points=[[0,0.5],[1,0.5]];portConstraint=eastwest;whiteSpace=wrap;html=1;" vertex="1" parent="6hYHMVU2Tr5-_BcsYfaz-87">
          <mxGeometry y="198" width="140" height="26" as="geometry" />
        </mxCell>
        <mxCell id="6hYHMVU2Tr5-_BcsYfaz-99" value="notes" style="text;strokeColor=none;fillColor=none;align=left;verticalAlign=top;spacingLeft=4;spacingRight=4;overflow=hidden;rotatable=0;points=[[0,0.5],[1,0.5]];portConstraint=eastwest;whiteSpace=wrap;html=1;" vertex="1" parent="6hYHMVU2Tr5-_BcsYfaz-87">
          <mxGeometry y="224" width="140" height="26" as="geometry" />
        </mxCell>
        <mxCell id="6hYHMVU2Tr5-_BcsYfaz-100" value="ITEM_TYPE" style="swimlane;fontStyle=0;childLayout=stackLayout;horizontal=1;startSize=30;horizontalStack=0;resizeParent=1;resizeParentMax=0;resizeLast=0;collapsible=1;marginBottom=0;whiteSpace=wrap;html=1;" vertex="1" parent="1">
          <mxGeometry x="827" y="525" width="140" height="120" as="geometry" />
        </mxCell>
        <mxCell id="6hYHMVU2Tr5-_BcsYfaz-101" value="ID" style="text;strokeColor=none;fillColor=none;align=left;verticalAlign=middle;spacingLeft=4;spacingRight=4;overflow=hidden;points=[[0,0.5],[1,0.5]];portConstraint=eastwest;rotatable=0;whiteSpace=wrap;html=1;" vertex="1" parent="6hYHMVU2Tr5-_BcsYfaz-100">
          <mxGeometry y="30" width="140" height="30" as="geometry" />
        </mxCell>
        <mxCell id="6hYHMVU2Tr5-_BcsYfaz-102" value="NAME" style="text;strokeColor=none;fillColor=none;align=left;verticalAlign=middle;spacingLeft=4;spacingRight=4;overflow=hidden;points=[[0,0.5],[1,0.5]];portConstraint=eastwest;rotatable=0;whiteSpace=wrap;html=1;" vertex="1" parent="6hYHMVU2Tr5-_BcsYfaz-100">
          <mxGeometry y="60" width="140" height="30" as="geometry" />
        </mxCell>
        <mxCell id="6hYHMVU2Tr5-_BcsYfaz-103" value="DESCRIPTION" style="text;strokeColor=none;fillColor=none;align=left;verticalAlign=middle;spacingLeft=4;spacingRight=4;overflow=hidden;points=[[0,0.5],[1,0.5]];portConstraint=eastwest;rotatable=0;whiteSpace=wrap;html=1;" vertex="1" parent="6hYHMVU2Tr5-_BcsYfaz-100">
          <mxGeometry y="90" width="140" height="30" as="geometry" />
        </mxCell>
        <mxCell id="6hYHMVU2Tr5-_BcsYfaz-104" style="edgeStyle=orthogonalEdgeStyle;rounded=0;orthogonalLoop=1;jettySize=auto;html=1;entryX=1;entryY=0.5;entryDx=0;entryDy=0;curved=1;endArrow=ERmany;endFill=0;exitX=0;exitY=0.5;exitDx=0;exitDy=0;" edge="1" parent="1" source="6hYHMVU2Tr5-_BcsYfaz-101" target="6hYHMVU2Tr5-_BcsYfaz-17">
          <mxGeometry relative="1" as="geometry">
            <mxPoint x="790" y="580" as="sourcePoint" />
            <mxPoint x="840" y="380" as="targetPoint" />
          </mxGeometry>
        </mxCell>
        <mxCell id="6hYHMVU2Tr5-_BcsYfaz-105" value="ПОСТАВКИ ОТ ПОСТАВЩИКОВ" style="text;html=1;whiteSpace=wrap;strokeColor=none;fillColor=none;align=center;verticalAlign=middle;rounded=0;" vertex="1" parent="1">
          <mxGeometry x="228" width="160" height="30" as="geometry" />
        </mxCell>
        <mxCell id="6hYHMVU2Tr5-_BcsYfaz-106" style="edgeStyle=orthogonalEdgeStyle;rounded=0;orthogonalLoop=1;jettySize=auto;html=1;curved=1;endArrow=ERmany;endFill=0;exitX=1;exitY=0.5;exitDx=0;exitDy=0;entryX=0;entryY=0.5;entryDx=0;entryDy=0;" edge="1" parent="1" source="6hYHMVU2Tr5-_BcsYfaz-2" target="6hYHMVU2Tr5-_BcsYfaz-73">
          <mxGeometry relative="1" as="geometry">
            <mxPoint x="153" y="260" as="sourcePoint" />
            <mxPoint x="87" y="346" as="targetPoint" />
          </mxGeometry>
        </mxCell>
        <mxCell id="6hYHMVU2Tr5-_BcsYfaz-107" value="ПОЗИЦИИ В ПОСТАВККЕ" style="text;html=1;whiteSpace=wrap;strokeColor=none;fillColor=none;align=center;verticalAlign=middle;rounded=0;" vertex="1" parent="1">
          <mxGeometry x="391" y="250" width="160" height="30" as="geometry" />
        </mxCell>
        <mxCell id="6hYHMVU2Tr5-_BcsYfaz-108" style="edgeStyle=orthogonalEdgeStyle;rounded=0;orthogonalLoop=1;jettySize=auto;html=1;curved=1;endArrow=ERmany;endFill=0;entryX=0;entryY=0.5;entryDx=0;entryDy=0;exitX=1;exitY=0.5;exitDx=0;exitDy=0;" edge="1" parent="1" source="6hYHMVU2Tr5-_BcsYfaz-72" target="6hYHMVU2Tr5-_BcsYfaz-80">
          <mxGeometry relative="1" as="geometry">
            <mxPoint x="380" y="75" as="sourcePoint" />
            <mxPoint x="370" y="140" as="targetPoint" />
            <Array as="points">
              <mxPoint x="400" y="75" />
              <mxPoint x="400" y="210" />
              <mxPoint x="368" y="210" />
              <mxPoint x="368" y="361" />
            </Array>
          </mxGeometry>
        </mxCell>
        <mxCell id="6hYHMVU2Tr5-_BcsYfaz-110" style="edgeStyle=orthogonalEdgeStyle;rounded=0;orthogonalLoop=1;jettySize=auto;html=1;curved=1;endArrow=ERmany;endFill=0;exitX=-0.01;exitY=0.306;exitDx=0;exitDy=0;exitPerimeter=0;entryX=1;entryY=0.5;entryDx=0;entryDy=0;" edge="1" parent="1" source="6hYHMVU2Tr5-_BcsYfaz-16" target="6hYHMVU2Tr5-_BcsYfaz-81">
          <mxGeometry relative="1" as="geometry">
            <mxPoint x="650" y="400" as="sourcePoint" />
            <mxPoint x="600" y="370" as="targetPoint" />
          </mxGeometry>
        </mxCell>
        <mxCell id="6hYHMVU2Tr5-_BcsYfaz-111" value="ПАРТИИ ТОВАРОВ" style="text;html=1;whiteSpace=wrap;strokeColor=none;fillColor=none;align=center;verticalAlign=middle;rounded=0;" vertex="1" parent="1">
          <mxGeometry x="610" y="61" width="160" height="30" as="geometry" />
        </mxCell>
        <mxCell id="6hYHMVU2Tr5-_BcsYfaz-114" style="edgeStyle=orthogonalEdgeStyle;rounded=0;orthogonalLoop=1;jettySize=auto;html=1;curved=1;endArrow=ERmany;endFill=0;exitX=0;exitY=0.25;exitDx=0;exitDy=0;entryX=1;entryY=0.5;entryDx=0;entryDy=0;" edge="1" parent="1" source="6hYHMVU2Tr5-_BcsYfaz-10" target="6hYHMVU2Tr5-_BcsYfaz-65">
          <mxGeometry relative="1" as="geometry">
            <mxPoint x="770" y="91" as="sourcePoint" />
            <mxPoint x="820" y="91" as="targetPoint" />
          </mxGeometry>
        </mxCell>
        <mxCell id="6hYHMVU2Tr5-_BcsYfaz-115" style="edgeStyle=orthogonalEdgeStyle;rounded=0;orthogonalLoop=1;jettySize=auto;html=1;curved=1;endArrow=ERmany;endFill=0;exitX=1;exitY=0.5;exitDx=0;exitDy=0;entryX=0;entryY=0.5;entryDx=0;entryDy=0;" edge="1" parent="1" source="6hYHMVU2Tr5-_BcsYfaz-72" target="6hYHMVU2Tr5-_BcsYfaz-58">
          <mxGeometry relative="1" as="geometry">
            <mxPoint x="459" y="70" as="sourcePoint" />
            <mxPoint x="509" y="70" as="targetPoint" />
          </mxGeometry>
        </mxCell>
        <mxCell id="6hYHMVU2Tr5-_BcsYfaz-116" style="edgeStyle=orthogonalEdgeStyle;rounded=0;orthogonalLoop=1;jettySize=auto;html=1;curved=1;endArrow=ERmany;endFill=0;exitX=0.002;exitY=0.306;exitDx=0;exitDy=0;entryX=0;entryY=0.5;entryDx=0;entryDy=0;exitPerimeter=0;" edge="1" parent="1" source="6hYHMVU2Tr5-_BcsYfaz-16" target="6hYHMVU2Tr5-_BcsYfaz-59">
          <mxGeometry relative="1" as="geometry">
            <mxPoint x="480" y="139.57999999999998" as="sourcePoint" />
            <mxPoint x="530" y="139.57999999999998" as="targetPoint" />
            <Array as="points">
              <mxPoint x="570" y="478" />
              <mxPoint x="570" y="196" />
            </Array>
          </mxGeometry>
        </mxCell>
        <mxCell id="6hYHMVU2Tr5-_BcsYfaz-125" style="edgeStyle=orthogonalEdgeStyle;rounded=0;orthogonalLoop=1;jettySize=auto;html=1;curved=1;endArrow=ERmany;endFill=0;exitX=0;exitY=0.5;exitDx=0;exitDy=0;entryX=1;entryY=0.5;entryDx=0;entryDy=0;" edge="1" parent="1" source="6hYHMVU2Tr5-_BcsYfaz-57" target="6hYHMVU2Tr5-_BcsYfaz-89">
          <mxGeometry relative="1" as="geometry">
            <mxPoint x="452" y="210" as="sourcePoint" />
            <mxPoint x="490" y="210" as="targetPoint" />
            <Array as="points">
              <mxPoint x="390" y="136" />
              <mxPoint x="390" y="361" />
            </Array>
          </mxGeometry>
        </mxCell>
        <mxCell id="6hYHMVU2Tr5-_BcsYfaz-126" value="ДВИЖЕНИЯ ПО ПАРТИЯМ" style="text;html=1;whiteSpace=wrap;strokeColor=none;fillColor=none;align=center;verticalAlign=middle;rounded=0;" vertex="1" parent="1">
          <mxGeometry x="180" y="250" width="160" height="30" as="geometry" />
        </mxCell>
        <mxCell id="6hYHMVU2Tr5-_BcsYfaz-128" style="edgeStyle=orthogonalEdgeStyle;rounded=0;orthogonalLoop=1;jettySize=auto;html=1;curved=1;endArrow=ERmany;endFill=0;exitX=0;exitY=0.5;exitDx=0;exitDy=0;entryX=0;entryY=0.5;entryDx=0;entryDy=0;" edge="1" parent="1" source="6hYHMVU2Tr5-_BcsYfaz-40" target="6hYHMVU2Tr5-_BcsYfaz-90">
          <mxGeometry relative="1" as="geometry">
            <mxPoint x="200" y="100" as="sourcePoint" />
            <mxPoint x="110" y="410" as="targetPoint" />
            <Array as="points">
              <mxPoint x="300" y="735" />
              <mxPoint x="300" y="590" />
              <mxPoint x="200" y="590" />
              <mxPoint x="200" y="550" />
              <mxPoint x="240" y="550" />
              <mxPoint x="240" y="570" />
              <mxPoint x="120" y="570" />
              <mxPoint x="120" y="390" />
              <mxPoint x="110" y="390" />
              <mxPoint x="110" y="391" />
            </Array>
          </mxGeometry>
        </mxCell>
        <mxCell id="6hYHMVU2Tr5-_BcsYfaz-130" value="ПОСТАВКИ ОТ ПОСТАВЩИКОВ" style="text;html=1;whiteSpace=wrap;strokeColor=none;fillColor=none;align=center;verticalAlign=middle;rounded=0;" vertex="1" parent="1">
          <mxGeometry x="228" width="160" height="30" as="geometry" />
        </mxCell>
        <mxCell id="6hYHMVU2Tr5-_BcsYfaz-131" style="edgeStyle=orthogonalEdgeStyle;rounded=0;orthogonalLoop=1;jettySize=auto;html=1;curved=1;endArrow=ERmany;endFill=0;entryX=0;entryY=0.5;entryDx=0;entryDy=0;exitX=0;exitY=0.5;exitDx=0;exitDy=0;" edge="1" parent="1" source="6hYHMVU2Tr5-_BcsYfaz-72" target="6hYHMVU2Tr5-_BcsYfaz-93">
          <mxGeometry relative="1" as="geometry">
            <mxPoint x="120" y="360" as="sourcePoint" />
            <mxPoint x="158" y="315" as="targetPoint" />
            <Array as="points">
              <mxPoint x="190" y="75" />
            </Array>
          </mxGeometry>
        </mxCell>
      </root>
    </mxGraphModel>
  </diagram>
</mxfile>
